# xmcd CD database file
#
# Track frame offsets:
#	150
#	31530
#	72095
#	117417
#	143605
#	173640
#	203659
#	246202
#
# Disc length: 3699 seconds
#
# Revision: 0
# Processed by: cddbd v1.5.1PL0 Copyright (c) Steve Scherf et al.
# Submitted via: CDex 1.51
#
DISCID=610e7108
DTITLE=David Murray - Jug-A-Lug
DYEAR=1994
DGENRE=Jazz
TTITLE0=Jug-A-Lug
TTITLE1=Ornette
TTITLE2=The Desegregation Of Our Chidren
TTITLE3=A.A.LIB
TTITLE4=Acoutic Octo Funk
TTITLE5=18-H
TTITLE6=I Don't Want It
TTITLE7=Morning Song
EXTD=YEAR: 1994
EXTT0=
EXTT1=
EXTT2=
EXTT3=
EXTT4=
EXTT5=
EXTT6=
EXTT7=
PLAYORDER=
